<svg xmlns="http://www.w3.org/2000/svg" xmlns:xlink="http://www.w3.org/1999/xlink" viewBox="0 0 157 158"><defs><style>.a{clip-path:url(#b);}.b,.d{fill:#fff;}.b,.c,.e{stroke:#404040;}.c,.i{fill:none;}.e,.f{fill:#779bff;}.g{fill:#404040;font-size:60px;font-family:Poppins-Black, Poppins;font-weight:800;}.h{stroke:none;}.j{fill:rgba(244,244,244,0);}</style><clipPath id="b"><rect width="157" height="158"/></clipPath></defs><g id="a" class="a"><rect class="j" width="157" height="158"/><g class="b" transform="translate(1 2)"><rect class="h" width="155" height="155" rx="30"/><rect class="i" x="0.5" y="0.5" width="154" height="154" rx="29.5"/></g><g transform="translate(-25.448 -0.5)"><path class="c" d="M0,0V60" transform="translate(132.948 20.5)"/><g class="b" transform="translate(127 58.517)"><circle class="h" cx="5.948" cy="5.948" r="5.948"/><circle class="i" cx="5.948" cy="5.948" r="5.448"/></g></g><g transform="translate(-113 -125)"><g transform="translate(0 -1)"><g class="b" transform="translate(142 146)"><rect class="h" width="39" height="26"/><rect class="i" x="0.5" y="0.5" width="38" height="25"/></g></g><g transform="translate(0 -6)"><g class="b" transform="translate(168 151)"><circle class="h" cx="13" cy="13" r="13"/><circle class="i" cx="13" cy="13" r="12.5"/></g><g class="b" transform="translate(129 151)"><circle class="h" cx="13" cy="13" r="13"/><circle class="i" cx="13" cy="13" r="12.5"/></g><rect class="d" width="40" height="24" transform="translate(141 152)"/><g class="b" transform="translate(133 154)"><circle class="h" cx="10" cy="10" r="10"/><circle class="i" cx="10" cy="10" r="9.5"/></g></g></g><g transform="translate(-113 -134)"><g class="b" transform="translate(181 214) rotate(180)"><rect class="h" width="39" height="26"/><rect class="i" x="0.5" y="0.5" width="38" height="25"/></g><g class="e" transform="translate(155 214) rotate(180)"><circle class="h" cx="13" cy="13" r="13"/><circle class="i" cx="13" cy="13" r="12.5"/></g><g class="e" transform="translate(194 214) rotate(180)"><circle class="h" cx="13" cy="13" r="13"/><circle class="i" cx="13" cy="13" r="12.5"/></g><rect class="f" width="40" height="24" transform="translate(182 213) rotate(180)"/><g class="b" transform="translate(190 211) rotate(180)"><circle class="h" cx="10" cy="10" r="10"/><circle class="i" cx="10" cy="10" r="9.5"/></g></g><text class="g" transform="translate(12 146)"><tspan x="0" y="0">GUI</tspan></text><g transform="translate(258.448 100.5) rotate(180)"><path class="c" d="M0,0V60" transform="translate(132.948 20.5)"/><g class="b" transform="translate(127 58.517)"><circle class="h" cx="5.948" cy="5.948" r="5.948"/><circle class="i" cx="5.948" cy="5.948" r="5.448"/></g></g></g></svg>